# xmcd CD database file
#
# Track frame offsets:
#	150
#	22902
#	43473
#	55223
#	71410
#	87068
#	112048
#	124756
#	143659
#	163237
#	195342
#	216274
#	231447
#
# Disc length: 3363 seconds
#
# Revision: 2
# Processed by: cddbd v1.5.2PL0 Copyright (c) Steve Scherf et al.
# Submitted via: CDex 1.50Beta7
#
DISCID=b90d210d
DTITLE=The James Harman Band - Do Not Disturb
DYEAR=2008
DGENRE=Blues
TTITLE0=Do Not Disturb
TTITLE1=I Declare
TTITLE2=Wake-Up Call
TTITLE3=Rags To Riches
TTITLE4=Stranger Blues
TTITLE5=Icepick's Advice
TTITLE6=Motel King
TTITLE7=Swampnight
TTITLE8=Icepick's Confession
TTITLE9=Phonebill Blues
TTITLE10=Mad 'Bout Somethin'
TTITLE11=I'm Gone
TTITLE12=I've Got News
EXTD=YEAR: 2008
EXTT0=
EXTT1=
EXTT2=
EXTT3=
EXTT4=
EXTT5=
EXTT6=
EXTT7=
EXTT8=
EXTT9=
EXTT10=
EXTT11=
EXTT12=
PLAYORDER=
